<svg id="Capa_1" data-name="Capa 1" xmlns="http://www.w3.org/2000/svg" xmlns:xlink="http://www.w3.org/1999/xlink" viewBox="0 0 5338.2857 5893.7143"><defs><style>.cls-1{fill:url(#Degradado_sin_nombre_119);}</style><linearGradient id="Degradado_sin_nombre_119" x1="191.4363" y1="1760.4053" x2="5190.6762" y2="4091.5892" gradientUnits="userSpaceOnUse"><stop offset="0" stop-color="#6b00f6"/><stop offset="0.0615" stop-color="#6907f6"/><stop offset="0.1481" stop-color="#6319f7"/><stop offset="0.2495" stop-color="#5937f8"/><stop offset="0.3622" stop-color="#4c61fa"/><stop offset="0.4825" stop-color="#3b96fd"/><stop offset="0.5905" stop-color="#2accff"/></linearGradient></defs><title>Mesa de trabajo 1Blue</title><path d="M2623.3408,2918.47q0,150.7548-.0454,301.5094c-.0353,29.6127-3.05,32.0622-28.909,18.97q-185.3838-93.8537-370.3041-188.6217-140.04-71.418-280.0787-142.8373-277.8489-141.23-555.7792-282.2986-219.9033-111.9849-439.49-224.5908c-8.1174-4.1412-17.0566-13.01-26.0308-6.5092-7.8108,5.6583-1.7127,16.2294-1.7,24.6288.18,121.2091.8657,242.42.3693,363.6269-.2769,67.54,3.0862,135.1519-2.3125,202.618-1.5037,18.7912,8.41,28.052,23.8561,35.6625q185.2687,91.2889,370.1635,183.3363,177.9571,88.4571,355.7436,177.2573c9.281,4.6223,18.6372,9.1542,28.2146,13.1067,11.2738,4.6524,16.2719,13.1327,14.706,24.6322-8.0156,58.8568,1.1324,117.6327.5649,176.472-1.2108,125.526-.2374,251.0719-.498,376.6089-.0431,20.7464-2.2972,41.481-2.6619,62.2359-.5224,29.7127-1.0432,30.2052-28.6258,16.3q-85.8447-43.2774-171.6964-86.5426-234.275-118.2082-468.5229-236.47c-33.24-16.7878-66.6088-33.3545-99.398-50.99-16.3194-8.7769-22.3554-3.9367-22.3119,13.079.3232,126.4867.8415,252.9737.82,379.46-.003,18.097,12.9069,22.6873,25.2865,28.871q258.118,128.9428,516.2145,257.93,428.9831,214.3826,857.9532,428.7911c101.5049,50.7424,202.7467,102.0179,304.616,152.0159,18.7263,9.1907,26.8009,19.8967,26.7178,41.5454-.7738,201.0031-.4,402.0106-.4866,603.0168-.013,30.4681-2.8869,31.8274-30.8764,18.1426q-266.0835-130.0932-532.214-260.09-396.5647-194.695-792.8132-390.0322Q978.91,4794.7691,663.5176,4641.2359c-97.2244-47.546-193.9755-96.08-291.7317-142.5035-24.3516-11.5646-33.8709-25.3052-33.8546-53.1024q.8748-1488.0523.144-2976.1053c-.0057-37.84.4859-38.1683,34.7645-20.1732,130.2741,68.389,260.2809,137.29,390.7967,205.2145,185.1368,96.351,372.2283,188.832,559.1229,281.72,183.03,90.9673,364.7909,184.483,547.445,276.2118,124.5477,62.5472,249.8377,123.6158,374.49,185.9561,110.7265,55.3758,219.9585,113.8966,332.131,166.1338,36.9833,17.2219,48.62,36.5411,47.3747,75.7956-2.9389,92.6121-.9426,185.3813-.9426,278.0866Z"/><path d="M2735.4238,4097.2616q.0552-735.56-.5173-1471.1194c-.0435-27.9273,8.1028-42.2539,34.1489-55.2492,187.513-93.5576,373.8843-189.4,560.691-284.3737q279.0657-141.879,558.2414-283.5415,306.729-156.1978,613.2029-312.8965,233.8269-119.0222,468.0855-237.1971c7.7277-3.9133,15.7467-7.2572,23.4287-11.253,16.3015-8.4791,22.2137-1.8084,21.8849,14.5471-.087,4.33.0539,8.6632.0539,12.9948-.0095,193.2036-.391,386.4089.452,579.6088.1016,23.2834-7.82,35.6289-28.4192,46.1588-169.6325,86.71-338.5381,174.8393-507.9757,261.933q-390.5313,200.7408-781.4261,400.78c-117.07,60.1189-233.5086,121.4792-351.0329,180.6913-22.1956,11.1826-30.7187,26.3031-30.3368,48.7733.5449,32.0172,2.8079,64.0267,2.63,96.03-.5507,98.7263-5.2559,197.5541-2.1141,296.1439,3.9765,124.7784-1.4825,249.3623-.8309,374.0293,1.0086,193.0692,4.0428,386.1568,2.2214,579.199-.8325,88.2252,5.7684,176.5475-2.04,264.7321-1.1388,12.8566.862,25.96.59,38.9322-.3919,18.6884,5.9415,19.1123,21.3521,11.3381q346.7261-174.918,693.9883-348.7749,351.9091-176.2405,704.1274-351.8633c84.4287-42.2381,168.8225-84.564,252.67-127.9335,18.3727-9.5029,26.5441-9.8716,26.5079,13.6733q-.4759,313.1968-.0787,626.3934c.0451,20.48-10.9516,28.4083-26.8463,36.267q-305.0889,150.846-609.8008,302.4567-325.7012,161.7831-651.3064,323.7578c-152.5791,76.0184-304.777,152.8021-457.3878,228.7564q-249.8659,124.3584-500.1889,247.7971c-31.53,15.5974-34.0071,13.85-34.0074-21.8734Q2735.3838,4836.72,2735.4238,4097.2616Z"/><path d="M2729.8429,550.469c-1.8741-78.3206,3.3278-184.0153-2.1852-289.6353-1.1029-21.1338,4.385-23.602,27.3636-12.1146q154.6078,77.29,309.1455,154.72Q3454.9176,598.1553,3845.76,792.6876q345.0127,172.3289,689.5145,345.68,191.5675,95.9574,383.328,191.5314c7.4941,3.7542,19.68,4.9153,20.5525,13.8477,1.0525,10.759-12.1507,10.3779-19.2163,13.84q-201.8355,98.8864-404.0481,197.0044-110.9344,54.0588-221.6518,108.5626c-15.1494,7.5023-28.8928,8.7353-44.4091.9106q-330.56-166.6992-661.3767-332.8882-416.6836-209.54-833.6-418.615c-18.6057-9.3069-26.0915-19.0192-25.7215-41.0893C2730.7735,773.6011,2729.8429,675.6882,2729.8429,550.469Z"/><path d="M2627.2255,569.22c-.0377,96.1658-1.2336,192.355.6593,288.4836.6023,30.6-10.3011,46.0787-37.3419,59.4706q-594.9606,294.6513-1188.9718,591.2172c-104.6767,52.118-209.4406,104.065-313.8155,156.7806-15.4523,7.8044-28.0923,8.1931-43.7106.2729Q775.2588,1529.14,505.9334,1393.898c-23.205-11.6908-46.6165-22.9755-69.7149-34.8706-5.7649-2.9684-14.7667-4.064-14.431-12.8812.3251-8.545,9.024-9.3348,14.9964-12.3342q186.81-93.8167,373.6184-187.6361Q1098.0666,1001.4818,1385.6865,856.7c156.3084-78.3545,313.1246-155.6978,469.42-234.0781q369.2122-185.1553,738.0495-371.0571c31.9917-16.08,34.0941-14.639,34.1008,21.3613Q2627.2846,421.0728,2627.2255,569.22Z"/><path class="cls-1" d="M2623.3408,2918.47q0,150.7548-.0454,301.5094c-.0353,29.6127-3.05,32.0622-28.909,18.97q-185.3838-93.8537-370.3041-188.6217-140.04-71.418-280.0787-142.8373-277.8489-141.23-555.7792-282.2986-219.9033-111.9849-439.49-224.5908c-8.1174-4.1412-17.0566-13.01-26.0308-6.5092-7.8108,5.6583-1.7127,16.2294-1.7,24.6288.18,121.2091.8657,242.42.3693,363.6269-.2769,67.54,3.0862,135.1519-2.3125,202.618-1.5037,18.7912,8.41,28.052,23.8561,35.6625q185.2687,91.2889,370.1635,183.3363,177.9571,88.4571,355.7436,177.2573c9.281,4.6223,18.6372,9.1542,28.2146,13.1067,11.2738,4.6524,16.2719,13.1327,14.706,24.6322-8.0156,58.8568,1.1324,117.6327.5649,176.472-1.2108,125.526-.2374,251.0719-.498,376.6089-.0431,20.7464-2.2972,41.481-2.6619,62.2359-.5224,29.7127-1.0432,30.2052-28.6258,16.3q-85.8447-43.2774-171.6964-86.5426-234.275-118.2082-468.5229-236.47c-33.24-16.7878-66.6088-33.3545-99.398-50.99-16.3194-8.7769-22.3554-3.9367-22.3119,13.079.3232,126.4867.8415,252.9737.82,379.46-.003,18.097,12.9069,22.6873,25.2865,28.871q258.118,128.9428,516.2145,257.93,428.9831,214.3826,857.9532,428.7911c101.5049,50.7424,202.7467,102.0179,304.616,152.0159,18.7263,9.1907,26.8009,19.8967,26.7178,41.5454-.7738,201.0031-.4,402.0106-.4866,603.0168-.013,30.4681-2.8869,31.8274-30.8764,18.1426q-266.0835-130.0932-532.214-260.09-396.5647-194.695-792.8132-390.0322Q978.91,4794.7691,663.5176,4641.2359c-97.2244-47.546-193.9755-96.08-291.7317-142.5035-24.3516-11.5646-33.8709-25.3052-33.8546-53.1024q.8748-1488.0523.144-2976.1053c-.0057-37.84.4859-38.1683,34.7645-20.1732,130.2741,68.389,260.2809,137.29,390.7967,205.2145,185.1368,96.351,372.2283,188.832,559.1229,281.72,183.03,90.9673,364.7909,184.483,547.445,276.2118,124.5477,62.5472,249.8377,123.6158,374.49,185.9561,110.7265,55.3758,219.9585,113.8966,332.131,166.1338,36.9833,17.2219,48.62,36.5411,47.3747,75.7956-2.9389,92.6121-.9426,185.3813-.9426,278.0866Z"/><path class="cls-1" d="M2735.4238,4097.2616q.0552-735.56-.5173-1471.1194c-.0435-27.9273,8.1028-42.2539,34.1489-55.2492,187.513-93.5576,373.8843-189.4,560.691-284.3737q279.0657-141.879,558.2414-283.5415,306.729-156.1978,613.2029-312.8965,233.8269-119.0222,468.0855-237.1971c7.7277-3.9133,15.7467-7.2572,23.4287-11.253,16.3015-8.4791,22.2137-1.8084,21.8849,14.5471-.087,4.33.0539,8.6632.0539,12.9948-.0095,193.2036-.391,386.4089.452,579.6088.1016,23.2834-7.82,35.6289-28.4192,46.1588-169.6325,86.71-338.5381,174.8393-507.9757,261.933q-390.5313,200.7408-781.4261,400.78c-117.07,60.1189-233.5086,121.4792-351.0329,180.6913-22.1956,11.1826-30.7187,26.3031-30.3368,48.7733.5449,32.0172,2.8079,64.0267,2.63,96.03-.5507,98.7263-5.2559,197.5541-2.1141,296.1439,3.9765,124.7784-1.4825,249.3623-.8309,374.0293,1.0086,193.0692,4.0428,386.1568,2.2214,579.199-.8325,88.2252,5.7684,176.5475-2.04,264.7321-1.1388,12.8566.862,25.96.59,38.9322-.3919,18.6884,5.9415,19.1123,21.3521,11.3381q346.7261-174.918,693.9883-348.7749,351.9091-176.2405,704.1274-351.8633c84.4287-42.2381,168.8225-84.564,252.67-127.9335,18.3727-9.5029,26.5441-9.8716,26.5079,13.6733q-.4759,313.1968-.0787,626.3934c.0451,20.48-10.9516,28.4083-26.8463,36.267q-305.0889,150.846-609.8008,302.4567-325.7012,161.7831-651.3064,323.7578c-152.5791,76.0184-304.777,152.8021-457.3878,228.7564q-249.8659,124.3584-500.1889,247.7971c-31.53,15.5974-34.0071,13.85-34.0074-21.8734Q2735.3838,4836.72,2735.4238,4097.2616Z"/><path class="cls-1" d="M2729.8429,550.469c-1.8741-78.3206,3.3278-184.0153-2.1852-289.6353-1.1029-21.1338,4.385-23.602,27.3636-12.1146q154.6078,77.29,309.1455,154.72Q3454.9176,598.1553,3845.76,792.6876q345.0127,172.3289,689.5145,345.68,191.5675,95.9574,383.328,191.5314c7.4941,3.7542,19.68,4.9153,20.5525,13.8477,1.0525,10.759-12.1507,10.3779-19.2163,13.84q-201.8355,98.8864-404.0481,197.0044-110.9344,54.0588-221.6518,108.5626c-15.1494,7.5023-28.8928,8.7353-44.4091.9106q-330.56-166.6992-661.3767-332.8882-416.6836-209.54-833.6-418.615c-18.6057-9.3069-26.0915-19.0192-25.7215-41.0893C2730.7735,773.6011,2729.8429,675.6882,2729.8429,550.469Z"/><path class="cls-1" d="M2627.2255,569.22c-.0377,96.1658-1.2336,192.355.6593,288.4836.6023,30.6-10.3011,46.0787-37.3419,59.4706q-594.9606,294.6513-1188.9718,591.2172c-104.6767,52.118-209.4406,104.065-313.8155,156.7806-15.4523,7.8044-28.0923,8.1931-43.7106.2729Q775.2588,1529.14,505.9334,1393.898c-23.205-11.6908-46.6165-22.9755-69.7149-34.8706-5.7649-2.9684-14.7667-4.064-14.431-12.8812.3251-8.545,9.024-9.3348,14.9964-12.3342q186.81-93.8167,373.6184-187.6361Q1098.0666,1001.4818,1385.6865,856.7c156.3084-78.3545,313.1246-155.6978,469.42-234.0781q369.2122-185.1553,738.0495-371.0571c31.9917-16.08,34.0941-14.639,34.1008,21.3613Q2627.2846,421.0728,2627.2255,569.22Z"/></svg>