<svg id="Capa_2" data-name="Capa 2" xmlns="http://www.w3.org/2000/svg" xmlns:xlink="http://www.w3.org/1999/xlink" viewBox="0 0 2797.7143 4249.9286"><defs><style>.cls-1{fill:url(#Degradado_sin_nombre_133);}</style><linearGradient id="Degradado_sin_nombre_133" x1="-399.2945" y1="3095.3072" x2="2445.5195" y2="1645.8021" gradientUnits="userSpaceOnUse"><stop offset="0" stop-color="#ec621c"/><stop offset="0.1364" stop-color="#ed661b"/><stop offset="0.2795" stop-color="#ef731a"/><stop offset="0.4251" stop-color="#f28817"/><stop offset="0.5553" stop-color="#f6a113"/><stop offset="0.666" stop-color="#f6a412"/><stop offset="0.7457" stop-color="#f7ad0f"/><stop offset="0.8153" stop-color="#f8bd0b"/><stop offset="0.8668" stop-color="#face06"/></linearGradient></defs><title>Mesa de trabajo 1Main</title><path class="cls-1" d="M512.49,1567.2c64.5578,55.8212,301.7713-106.2933,458.769-305.4358,51.7979-65.7023,322.2626-408.7711,206.0864-596.8429-32.4041-52.4573-92.6731-89.2562-170.6268-106.5666-15.761-70.3186-23.4458-150.1584-6.9-227.2066,17.2583,10.3665,32.3874,16.2914,45.23,21.3152,25.5164,9.9814,38.2741,14.9719,45.6279,11.96,12.2436-5.015,2.458-29.139-12.098-45.9749-19.5209-22.579-48.8764-33.501-56.4232-36.1238-2.4411-.8485-4.92-1.6261-7.4135-2.3479,40.6175-108.5552,117.78-152.1358,109.5052-189.6958-6.25-28.37-58.0974-39.0178-107.5761-13.0054-2.13-5.8308-4.0637-10.2129-5.1163-12.5151C996.3219,31.44,968.6106,1.2505,958.54,9.6978c-9.2015,7.7174-1.3035,45.6955,2.4513,63.7509A261.13,261.13,0,0,0,972.55,112.8741c-2.1759,2.5458-4.3135,5.1854-6.3961,7.9481C931.959,166.186,922.557,226.0141,908.5413,320.8613c-2.05,13.8708-4.0393,28.8594-5.8608,44.8678a154.8719,154.8719,0,0,0-31.12,5.859c-33.6537,10.0894-66.5614,33.7261-60.4486,45.6882,5.5845,10.9292,42.3,9.2928,59.755,8.5149a216.4529,216.4529,0,0,0,26.5184-2.8357c-2.6776,37.516-4.0952,79.112-3.2786,124.2011-104.7812.7276-226.8434,29.1867-350.9627,91.1436,23.7777,93.6451,48.74,227.1228,47.5451,387.337C588.2912,1347.0866,456.0923,1518.434,512.49,1567.2ZM774.4258,830.6576c3.2723-32.1924,44.2272-78.5308,69.4653-78.8207,24.3883-.3025,60.7626,44.9243,74.6416,79.6293,66.8883,167.2352,23.68,288.91-162.1259,398.9159C762.0868,1077.489,762.023,952.8608,774.4258,830.6576ZM345.4864,1694.6469c-25.836-.6323-46.09.37-55.5543.9355-5.071.3031-26.1042,1.62-53.8389,5.5825-27.9167,3.9885-38.2054,7.1686-47.1573,10.8858-10.592,4.3981-19.4026,8.1681-28.1616,17.2731-12.7053,13.207-16.5892,28.5824-17.9253,34.15-1.5461,6.4433-3.2639,17.1257-.8135,34.9553,3.2765,23.84,11.2831,40.6535,20.8855,60.4,19.3826,39.8579,29.0739,59.7868,33.7446,68.2907,23.1771,42.1992,41.9706,71.6642,52.6987,87.612,17.8271,26.5008,27.1322,37.5447,31.8732,42.99a330.8716,330.8716,0,0,0,41.0192,39.66,278.5743,278.5743,0,0,0,25.1382,17.75c4.0591,2.5394,10.138,6.193,17.7153,10.1853,2.4536,1.2927,7.599,3.9564,14.3308,7.0277,3.6783,1.6783,12.1778,5.4618,23.496,9.4878,3.71,1.32,13.259,4.6139,26.1384,7.9874a363.15,363.15,0,0,0,48.6526,8.9938c15.47,1.8329,35.9123,4.1516,62.6458,2.2555a273.8461,273.8461,0,0,0,35.3089-4.7492,269.0794,269.0794,0,0,0,39.86-11.5812,286.6673,286.6673,0,0,0,38.9-18.0755,351.4307,351.4307,0,0,0,30.6872-19.04c3.3181-2.2684,11.1794-7.7141,22.4221-16.4564,18.5587-14.4313,32.4046-27.0164,39.44-33.5123,42.14-38.9083,86.8555-86.79,86.8556-86.79,9.5639-10.2412,40.5858-43.6494,79.9366-90.2269,25.2728-29.9139,43.6762-53.0627,58.31-71.5007,31.52-39.7147,54.6768-70.6313,76.4192-99.706,19.641-26.2646,33.3272-45.0294,55.4554-75.369,25.8057-35.3816,30.2151-41.83,75.4629-104.2569,32.4872-44.8211,43.945-60.4408,48.0741-66.0652,24.8031-33.7844,37.2046-50.6767,54.777-73.6792,26.0956-34.16,39.1434-51.24,40.4817-52.7465a201.6174,201.6174,0,0,0,20.1149-26.3354,147.3362,147.3362,0,0,0,23.0538-59.1139,178.3661,178.3661,0,0,0,2.1611-29.1632c-.0417-8.5233-.6577-14.9544-1.0167-18.566-2.2662-22.7971-3.3827-34.1975-6.4082-51.66-7.428-42.873-29.511-253.4921-32.2655-271.286a32.0446,32.0446,0,0,0-3.2139-9.9662,25.837,25.837,0,0,0-4.5853-6.4491c-6.0514-6.0593-13.8661-6.5062-16.2323-6.6414a28.8465,28.8465,0,0,0-13.8109,2.7952c-8.0947,3.8472-12.47,10.4789-17.2051,17.8506-2.438,3.7951-4.0517,6.95-7.9557,15.4414-5.1876,11.2839-7.7815,16.9258-11.32,25.6707-7.3591,18.1857-14.2929,30.6968-21.0974,44.3963-25.68,51.7015-138.6639,299.7967-167.9394,356.2688-6.24,12.0377-12.6072,23.88-12.6073,23.88-4.2143,7.8385-11.5664,21.4893-21.622,39.0316,0,0-16.1062,28.0977-31.7535,52.7862-4.5092,7.1147-8.958,13.922-8.958,13.9221-4.92,7.528-8.84,13.3359-10.69,16.0651-7.3588,10.8533-13.256,19.13-15.6077,22.4145-8.9633,12.5185-16.13,21.9356-18.9226,25.5846-7.4286,9.7056-13.4419,17.1793-16.5343,20.9909-8.672,10.6887-14.3092,17.6367-22.3683,26.4438-4.9892,5.4523-12.5335,13.395-22.1679,22.3981-2.8284,2.643-14.7627,13.7183-31.9247,26.8548-5.6087,4.2932-18.4712,13.9315-35.9458,24.8625-8.6076,5.3844-21.4364,13.0224-37.5363,21.1521a467.019,467.019,0,0,1-48.6633,21.2057,458.7318,458.7318,0,0,1-45.3352,14.1461c-4.3625,1.115-22.9519,5.7966-48.32,9.5906-18.36,2.746-32.25,3.8273-41.6516,4.5405a709.2273,709.2273,0,0,1-84.1279,1.215c-19.2184-.737-35.8986-2.0672-45.8066-2.9552-6.34-.5683-7.9607-.781-39.5651-4.0339-19.6077-2.0182-29.4983-3.0346-33.7492-3.3963C382.507,1696.5158,366.2005,1695.1538,345.4864,1694.6469Zm180.8793,642.988c-185.2136-6.03-286.151-185.2813-339.04-148.7372-44.0839,30.46-28.2909,192.857,212.3531,745.8106,2.9769-1.9769,7.5885-5.0511,13.1888-8.836,169.3422-114.4458,257.9858-213.0764,400.1464-347.9206,160.4225-152.1663,144.1877-119.1027,235.38-213.3185,49.5871-51.231,134.8921-146.8382,227.5717-279.8117,172.2-247.0664,226.6418-422.7288,250.8327-535.3875,16.8365-78.4095,42.292-196.9581,11.4671-212.5667-46.793-23.6942-170.3169,217.2553-430.7492,530.9416C852.09,2175.4658,709.0673,2343.5827,526.3657,2337.6349ZM379.7473,1275.1364c-2.0676-125.3373-.294-227.1837-8.2914-328.166-1.6308-20.5457-40.8809-53.4714-61.3029-52.2771-21.4457,1.2575-53.2381,33.1932-59.4741,57.7326C219.7613,1073.99,232.6852,1183.38,379.7473,1275.1364ZM2760.3193,2277.63c-13.3823-59.8734-44.9665-95.9995-96.9145-101.3372,6.8877-7.6847,15.1792-19.6575,15.5347-34.2941.758-31.3132-35.365-53.0007-49.0562-61.21-102.2114-61.3392-226.3584,22.42-241.8372,38.3344-6.2888,6.4766-11.4357,19.1623-21.3,14.2009-21.4024-10.7546-33.2124,6.12-44.8169,24.2425-24.4063,38.1067-24.4063,83.7694-26.1751,128.4913-.9353,23.7487-4.654,45.507-11.9758,65.9263l-.0005,0a812.9553,812.9553,0,0,1-64.03,93.598c-93.2449,117.646-188.3186,172.0589-290.6505,234.3561-76.8895,46.8084-184.775,118.2192-311.1294,222.2315-9.5065,5.9133-19.2748,12.5227-29.5294,19.684-72.115,50.3628-173.213,131.2054-282.4086,256.7137a711.5269,711.5269,0,0,1,26.32-122.8724c21.2929-68.4648,52.187-129.7065,89.7393-186.0128l.0021.0009A1429.2424,1429.2424,0,0,0,1522.262,2739.342c20.9079-30.6951,69.0767-103.7227,120.3592-213.1878,89.2518-190.5129,125.4872-365.6111,155.6273-518.6243,16.9544-86.0738,29.0577-167.5223,6.0159-264.1979-21.4949-90.1849-75.1-200.0259-117.313-194.169-41.9094,5.8147-36.3635,120.6414-105.281,302.3948-8.3091,21.9132-16.5605,41.8131-25.1733,60.8917-28.5963,58.88-61.1111,119.49-98.1555,181.024-153.5744,255.1-333.91,441.2233-492.3192,573.7208-226.906,162.6475-428.2756,357.898-598.48,595.182-4.1691,5.808-18.4173,3.4906-58.775,9.7291-111.0845-379.964-161.1939-557.2492-169.49-595.4006-1.2648-5.8169-6.4792-31.033-11.6561-30.7169-5.1071.3117-7.535,25.3093-8.1511,31.0716-12.4273,116.2317-211.4189,1049.9563,3.0059,1441.8111,15.5575,28.4309,55.5847,101.0779,114.18,104.6643,41.0174,2.5105,97.7849-47.9353,125.1864-91.147,35.8519-56.5068,46.31-130.3032,73.5-193.8662,112.6782-263.4585,256.2811-503.7595,472.43-716.9663,85.32,292.084,163.0732,558.7222,241.15,825.2561,25.9971,88.74,49.72,185.25,162.5813,181.0317,120.1751-4.5017,139.8-105.5862,156.2935-203.7741,40.1118-238.785,173.3562-548.3228,266.3449-693.5345,23.5481-36.7729,45.8233-66.8054,65.8-92.6106l.0005,0,.0158-.0216c21.9588-28.3646,41.13-51.618,56.1689-73.1021,9.2706-11.6473,19.232-23.9665,29.8438-36.83,50.4839-61.1944,90.3018-103.9373,106.8857-121.8686,136.5421-147.6366,232.99-250.4557,310.74-377.0947a1231.71,1231.71,0,0,0,95.4563-191.6047,65.1208,65.1208,0,0,1,7.3447,3.29c8.6658,4.5158,66.4346,27.461,116.8572,24.3614a113.4592,113.4592,0,0,0,25.96-4.6247c7.8328-2.3668,21.15-6.15,28.88-12.6461,23.7795-19.9843,18.2207-84.6013,17.7807-89.2458a149.2816,149.2816,0,0,1,64.2915,2.149c51.2835,13.29,83.4573,51.347,97.3826,70.3607C2775.4985,2377.66,2771.3716,2327.0658,2760.3193,2277.63ZM108.8245,317.9613a166.52,166.52,0,0,0-24.6914,24.13c-23.0313,27.8578-38.4643,66.6474-27.181,73.1564,10.3086,5.9473,40.2583-16.5858,54.497-27.2983,16.879-12.6992,28.7541-25.2621,38.5751-36.1988,23.58,21.7376,47.1681,49.0391,65.183,85.1519,15.4417,30.9547,24.5022,63.8108,28.9293,97.1267a155.2684,155.2684,0,0,0-17.9282,5.5767c-32.9063,12.55-64.175,38.5592-57.2881,50.0407,6.2915,10.49,42.81,6.1463,60.1707,4.0813,6.5769-.7823,12.6859-1.8205,18.4181-3.0108-.4665,57.9492-11.97,114.8342-25.4686,163.1181l152.2015-73.63A1026.5657,1026.5657,0,0,0,334.4237,441.89c8.2413,2.05,15.8,3.5066,22.7189,4.8355,26.7668,5.1406,40.15,7.7108,46.8974,3.3933,11.2346-7.189-2.3613-29.148-19.4591-43.0535-22.93-18.6484-53.6314-24.01-61.494-25.2062-2.5177-.383-5.06-.6969-7.6081-.9482-19.13-58.2147-37.36-98.162-72.9548-126.4906-74.2145-59.065-183.0907-35.21-189.0941,2.6985C50.34,276.633,75.6066,292.9848,108.8245,317.9613ZM2529.3093,3328.5876c-147.4216,180.5712-272.4533,333.7058-402.2431,492.6785,81.3468,114.5578,146.2558,233.988,237.4992,323.1892,49.3838,48.2771,161.5293,82.62,213.1587,55.2143,61.8491-32.8288,134.2967-146.7329,123.53-210.6665C2647.0791,3667.2561,2566.5908,3464.9431,2529.3093,3328.5876ZM2366.58,2794.6034c-190.8816,215.2562-369.41,416.5791-549.5944,619.7883,79.5642,114.4241,141.9467,204.13,218.2685,313.89,114.9946-159.0765,204.4834-311.5579,320.5869-436.2611C2505.0449,3131.7259,2451.8569,2983.7749,2366.58,2794.6034Z"/></svg>