<svg id="Capa_2" data-name="Capa 2" xmlns="http://www.w3.org/2000/svg" xmlns:xlink="http://www.w3.org/1999/xlink" viewBox="0 0 3076.71 4487.14"><defs><style>.cls-1{fill:url(#Degradado_sin_nombre_90);}</style><linearGradient id="Degradado_sin_nombre_90" x1="2315.83" y1="4536.02" x2="-80.61" y2="385.27" gradientUnits="userSpaceOnUse"><stop offset="0" stop-color="#edc55e"/><stop offset="0.14" stop-color="#a7702a"/><stop offset="0.29" stop-color="#e0b655"/><stop offset="0.35" stop-color="#dab051"/><stop offset="0.42" stop-color="#cb9f47"/><stop offset="0.51" stop-color="#b18237"/><stop offset="0.59" stop-color="#8f5e21"/><stop offset="1" stop-color="#e0b655"/></linearGradient></defs><title>Mesa de trabajo 1</title><path class="cls-1" d="M452.8,1318.34c-2.21-126.57-.32-229.41-8.86-331.38-1.75-20.75-43.69-54-65.51-52.79-22.92,1.27-56.89,33.52-63.55,58.29C281.84,1115.22,295.65,1225.68,452.8,1318.34Zm-26.35,403.72c-9.2-1.39-26.48-4-48.53-6-27.5-2.57-49.16-3.07-59.28-3.2-5.43-.08-27.95-.32-57.79,1.61-30,1.93-41.23,4.37-51,7.45-11.6,3.64-21.26,6.78-31.24,15.3-14.47,12.35-19.7,27.55-21.51,33.06-2.1,6.38-4.69,17-3.33,35.15,1.81,24.26,9.16,41.8,18,62.4,17.85,41.6,26.78,62.4,31.16,71.31,21.73,44.24,39.69,75.32,50,92.18,17.14,28,26.28,39.85,31,45.69a345.47,345.47,0,0,0,40.93,43,299,299,0,0,0,25.55,19.76c4.14,2.86,10.37,7,18.16,11.58,2.53,1.48,7.82,4.55,14.78,8.15,3.81,2,12.6,6.41,24.38,11.3,3.86,1.61,13.81,5.64,27.3,10a409.78,409.78,0,0,0,51.23,12.69c16.36,3,38,6.85,66.62,6.94a309.9,309.9,0,0,0,38-2.15,302,302,0,0,0,43.31-8.7,314,314,0,0,0,42.74-15.31,378.91,378.91,0,0,0,34-16.89c3.7-2,12.46-6.94,25.06-14.91,20.8-13.15,36.44-24.8,44.4-30.82,47.66-36,98.7-80.95,98.7-80.95,10.92-9.6,46.34-40.94,91.57-84.93,29-28.25,50.29-50.19,67.19-67.68,36.4-37.65,63.26-67.07,88.48-94.74,22.79-25,38.7-42.87,64.42-71.79,30-33.71,35.16-39.88,87.79-99.39,37.79-42.73,51.1-57.61,55.9-63,28.82-32.18,43.23-48.28,63.58-70.14,30.22-32.46,45.33-48.69,46.87-50.11a206,206,0,0,0,23.29-25,153.4,153.4,0,0,0,14.76-21.78,150.27,150.27,0,0,0,14-36,170.81,170.81,0,0,0,4.36-29.22,178.88,178.88,0,0,0,.22-18.78c-.81-23.13-1.19-34.7-3.19-52.51-4.9-43.74-13.6-257.55-15.28-275.68a31.07,31.07,0,0,0-2.73-10.28,26,26,0,0,0-4.43-6.84c-6-6.56-14.32-7.59-16.84-7.9a32.31,32.31,0,0,0-14.91,1.79c-8.9,3.27-14,9.62-19.6,16.69-2.87,3.65-4.81,6.7-9.57,15-6.32,11-9.49,16.47-13.87,25-9.13,17.77-17.4,29.86-25.62,43.15-31,50.17-168.93,291.66-204.11,346.37-7.5,11.66-15.13,23.11-15.13,23.11-5,7.58-13.84,20.79-25.79,37.71,0,0-19.15,27.1-37.57,50.8-5.31,6.83-10.53,13.36-10.53,13.36-5.77,7.22-10.36,12.77-12.53,15.39-8.61,10.38-15.47,18.28-18.21,21.41-10.44,11.94-18.74,20.9-22,24.36-8.6,9.23-15.53,16.31-19.1,19.92-10,10.12-16.49,16.7-25.71,25-5.7,5.12-14.3,12.56-25.2,20.91-3.2,2.45-16.71,12.71-35.93,24.67-6.28,3.9-20.67,12.66-40.06,22.36-9.56,4.79-23.77,11.52-41.51,18.51a515.2,515.2,0,0,1-53.36,17.74c-20.75,5.65-38,9-49.33,10.87-4.73.8-24.87,4.13-52.18,6.06-19.76,1.39-34.65,1.45-44.72,1.47a802.84,802.84,0,0,1-89.76-5c-20.44-2.18-38.12-4.76-48.62-6.39-6.72-1-8.43-1.38-41.89-7C441.43,1724.5,431,1722.74,426.45,1722.06Zm293.86,627.76c-54,15.23-131.47,31-223.71,9.28-182-42.86-259.18-200.69-303.6-177.23-50.66,26.76,15.64,247.62,38.57,324A2498.65,2498.65,0,0,0,412.22,2948.8a3530.63,3530.63,0,0,0,351.64-206.36c111.79-74.59,289.77-194.72,483.43-390.86,168.08-170.23,291.27-297.71,364.12-504.27,59.75-169.44,79.81-375.55,31.7-394-44.92-17.27-116.85,143.34-346,425.64C1026.68,2212.13,867.05,2308.48,720.31,2349.82ZM594.64,1613.26c69,56.37,322.47-107.33,490.23-308.43,55.35-66.34,344.36-412.77,220.22-602.69-34.63-53-99-90.13-182.33-107.61-16.84-71-25-151.63-7.37-229.43,18.44,10.47,34.6,16.45,48.33,21.52,27.26,10.08,40.9,15.12,48.75,12.08,13.09-5.06,2.63-29.42-12.92-46.42-20.86-22.8-52.23-33.83-60.3-36.48-2.6-.86-5.25-1.65-7.91-2.38,43.4-109.61,125.85-153.62,117-191.55-6.68-28.64-62.08-39.4-115-13.13-2.27-5.89-4.34-10.31-5.46-12.64C1111.65,62.46,1082,32,1071.28,40.5c-9.84,7.79-1.4,46.14,2.62,64.38a251.82,251.82,0,0,0,12.35,39.81c-2.33,2.57-4.61,5.23-6.84,8-36.54,45.81-46.58,106.23-61.56,202-2.19,14-4.32,29.15-6.26,45.31a173.69,173.69,0,0,0-33.26,5.92c-36,10.19-71.12,34.05-64.59,46.13,6,11,45.2,9.39,63.85,8.6a245.76,245.76,0,0,0,28.34-2.86c-2.86,37.88-4.38,79.88-3.5,125.42-112,.73-242.4,29.47-375,92,25.41,94.56,52.08,229.35,50.8,391.13C675.64,1391,534.38,1564,594.64,1613.26ZM874.54,869.5c3.49-32.5,47.26-79.3,74.23-79.59,26.06-.3,64.93,45.37,79.76,80.41,71.47,168.87,25.3,291.74-173.25,402.82C861.35,1118.75,861.28,992.9,874.54,869.5ZM163.3,351.78a174,174,0,0,0-26.39,24.37c-24.61,28.13-41.1,67.3-29,73.87,11,6,43-16.74,58.23-27.56,18-12.82,30.73-25.51,41.22-36.55,25.2,21.95,50.4,49.51,69.65,86,16.5,31.26,26.19,64.44,30.92,98.08a174.85,174.85,0,0,0-19.16,5.63c-35.16,12.67-68.58,38.94-61.22,50.53,6.73,10.59,45.75,6.21,64.3,4.12,7-.79,13.56-1.84,19.68-3-.5,58.52-12.79,116-27.21,164.72l162.63-74.35a985.5,985.5,0,0,0-42.54-240.65c8.8,2.07,16.88,3.54,24.27,4.88,28.6,5.19,42.9,7.79,50.11,3.43,12-7.26-2.52-29.44-20.79-43.48-24.5-18.83-57.31-24.24-65.71-25.45-2.69-.39-5.41-.7-8.13-1-20.44-58.78-39.92-99.12-78-127.73-79.3-59.64-195.64-35.55-202.06,2.73C100.8,310.05,127.8,326.56,163.3,351.78Zm2570,3033.49-429.82,497.5c86.92,115.68,156.28,236.28,253.78,326.36,52.77,48.75,172.61,83.43,227.78,55.75,66.09-33.15,143.5-148.17,132-212.73C2859.12,3727.25,2773.11,3523,2733.27,3385.27ZM2980.12,2324c-14.3-60.46-48-96.94-103.56-102.33,7.36-7.76,16.22-19.85,16.6-34.63.81-31.62-37.79-53.52-52.42-61.81-109.22-61.94-241.88,22.64-258.42,38.71-6.72,6.54-12.22,19.35-22.76,14.34-22.87-10.86-35.49,6.18-47.89,24.48-26.08,38.48-26.08,84.59-28,129.75-1,24-5,45.95-12.79,66.57h0a820.19,820.19,0,0,1-68.42,94.51c-99.64,118.8-201.24,173.75-310.58,236.65-82.17,47.27-197.45,119.38-332.47,224.41-10.16,6-20.59,12.65-31.55,19.88-77.06,50.86-185.09,132.49-301.78,259.23a684.51,684.51,0,0,1,28.13-124.08c22.75-69.13,55.76-131,95.89-187.83h0a1454.28,1454.28,0,0,0,107-131.62c22.34-31,73.82-104.74,128.62-215.28,95.37-192.37,134.09-369.19,166.29-523.7,18.12-86.92,31.05-169.16,6.43-266.79-23-91.06-80.25-202-125.35-196.07-44.79,5.87-38.86,121.83-112.5,305.36-3.6,9-13.34,32-26.9,61.49h0c-111,222.08-123.9,224-123.9,224-144.11,232.29-376.07,437.78-376.07,437.78-34.81,30.84-67.4,57.67-96.31,80.4-84.72,56.68-172.69,120.09-262.43,191a4116.8,4116.8,0,0,0-474.58,439.77c-118.7-383.68-172.25-562.7-181.11-601.23-1.35-5.87-6.93-31.34-12.46-31s-8.05,25.56-8.71,31.38C144.91,2844.73-67.72,3787.6,161.4,4183.29,178,4212,220.8,4285.36,283.41,4289c43.83,2.54,104.49-48.4,133.77-92,38.31-57.06,49.49-131.58,78.54-195.76,120.41-266,273.86-508.7,504.83-724,91.17,294.94,174.25,564.19,257.68,833.34,27.78,89.61,53.13,187.06,173.73,182.8,128.42-4.54,149.39-106.62,167-205.77,42.87-241.12,185.25-553.69,284.61-700.33,25.17-37.13,49-67.45,70.31-93.51h0l0,0c23.47-28.64,43.95-52.12,60-73.81,9.91-11.76,20.55-24.2,31.89-37.19,54-61.8,96.5-105,114.22-123.07,145.9-149.08,249-252.9,332-380.78a1218.57,1218.57,0,0,0,102-193.49,71.52,71.52,0,0,1,7.84,3.33c9.26,4.56,71,27.73,124.87,24.6a127.6,127.6,0,0,0,27.74-4.67c8.37-2.39,22.6-6.21,30.86-12.77,25.41-20.18,19.47-85.43,19-90.12a168.57,168.57,0,0,1,68.7,2.17c54.8,13.42,89.18,51.85,104.06,71.05C2996.34,2425,2991.93,2373.94,2980.12,2324Zm-420.73,522c-204,217.37-394.74,420.66-587.28,625.86l233.23,317c122.88-160.64,218.51-314.61,342.57-440.54C2707.35,3186.48,2650.51,3037.08,2559.39,2846.05Z"/></svg>